<svg width="229" height="91" xmlns="http://www.w3.org/2000/svg">
 <!-- Created with Method Draw - http://github.com/duopixel/Method-Draw/ -->
 <g>
  <title>background</title>
  <rect height="93" width="231" y="-1" x="-1" fill="#fff" id="canvas_background"/>
 </g>
 <g>
  <title>Layer 1</title>
  <path d="m213.104385,3.763298c-17.850494,-5.852018 -58.308884,1.170401 -80.621902,5.913285c-6.399277,-0.367669 -13.110046,-0.566822 -20.107056,-0.566822c-28.198738,0 -50.958118,3.017928 -68.252903,8.710603c-19.669247,6.553656 -30.573202,15.135565 -30.573202,25.053366c0,0.0858 0.008446,0.171593 0.008446,0.257381c27.676668,-15.778996 70.24,-23.867655 81.522829,-26.003185c1.785095,-0.303322 2.846069,0.474899 1.187286,0.775167c-0.126366,0.128674 -0.126366,0 0,0c-18.978828,4.136238 -54.174568,16.112944 -77.009745,33.353415l-0.025246,-0.02145c-14.457253,10.867561 -26.666289,26.131794 -2.248159,31.735638c18.498817,4.234314 51.614838,-0.759827 78.264313,-7.102104c6.432877,0.330963 13.19416,0.505569 20.334366,0.505569c49.173042,0 83.670052,-9.874924 95.980141,-24.278168l-67.545746,-0.04287c-2.837555,5.089081 -12.326736,7.80674 -27.137634,7.80674c-18.608345,0 -31.398384,-3.710331 -32.231964,-12.292248l128.22052,-0.0429c0.235657,-1.770947 -0.35376,-3.017948 -0.35376,-4.399746c0,-16.08843 -26.46431,-28.662609 -69.507492,-32.670156c17.522156,-3.964667 50.301361,-9.832001 66.080688,-5.150387c11.846893,3.492817 5.329803,10.824677 2.483765,13.842603c-0.471603,0.778234 2.020767,0.906916 2.492203,0.174639c5.911087,-5.426125 7.695969,-12.715094 -0.959747,-15.55837zm-123.99353,71.725395c-20.789177,4.519226 -49.450993,7.779198 -63.478773,3.949341c-10.466063,-2.864723 -5.86031,-10.625565 3.351202,-18.193314c5.590904,3.039368 12.587967,5.778488 20.822803,8.058014c11.131256,3.045464 24.207577,5.107468 39.304768,6.185959zm-4.698402,-38.696804c0.353622,-7.460529 15.046608,-10.692898 30.455261,-10.692898c16.233925,0 29.385887,3.407021 29.385887,10.692898l-59.841148,0z" stroke-width="1.5" stroke="#000" fill="#3051f4" id="svg_1"/>
 </g>
</svg>